<svg width="1544" height="500" xmlns="http://www.w3.org/2000/svg">
  <defs>
    <linearGradient id="banner-grad-1544" x1="0%" y1="0%" x2="100%" y2="100%">
      <stop offset="0%" style="stop-color:#0073aa;stop-opacity:1" />
      <stop offset="100%" style="stop-color:#005177;stop-opacity:1" />
    </linearGradient>
  </defs>
  
  <rect width="1544" height="500" fill="url(#banner-grad-1544)"/>
  
  <!-- Title -->
  <text x="80" y="140" font-family="Arial, sans-serif" font-size="72" font-weight="bold" fill="#FFFFFF">
    🚀 Smart SEO Booster
  </text>
  
  <!-- Subtitle -->
  <text x="80" y="200" font-family="Arial, sans-serif" font-size="36" fill="#FFFFFF" opacity="0.9">
    Comprehensive SEO Analysis &amp; Optimization for WordPress
  </text>
  
  <!-- Feature Icons -->
  <g transform="translate(80, 280)">
    <circle cx="0" cy="0" r="35" fill="#FFFFFF" opacity="0.2"/>
    <text x="0" y="15" font-size="40" text-anchor="middle">📊</text>
    
    <circle cx="120" cy="0" r="35" fill="#FFFFFF" opacity="0.2"/>
    <text x="120" y="15" font-size="40" text-anchor="middle">⚡</text>
    
    <circle cx="240" cy="0" r="35" fill="#FFFFFF" opacity="0.2"/>
    <text x="240" y="15" font-size="40" text-anchor="middle">🎯</text>
  </g>
  
  <!-- Dashboard Mockup -->
  <g transform="translate(950, 100)">
    <rect x="0" y="0" width="500" height="300" rx="15" fill="#FFFFFF" opacity="0.15"/>
    
    <!-- Score Circle -->
    <circle cx="120" cy="100" r="60" fill="none" stroke="#00a32a" stroke-width="8"/>
    <text x="120" y="115" font-family="Arial, sans-serif" font-size="48" font-weight="bold" fill="#FFFFFF" text-anchor="middle">85</text>
    
    <!-- Metric Bars -->
    <rect x="230" y="50" width="220" height="20" rx="10" fill="#00a32a" opacity="0.8"/>
    <rect x="230" y="90" width="180" height="20" rx="10" fill="#f0b849" opacity="0.8"/>
    <rect x="230" y="130" width="160" height="20" rx="10" fill="#00a32a" opacity="0.8"/>
    <rect x="230" y="170" width="200" height="20" rx="10" fill="#46b450" opacity="0.8"/>
  </g>
</svg>
